HIERARCHY
ROOT Hips
{
  OFFSET 63.1205 97.025 24.5445
  CHANNELS 6 Xposition Yposition Zposition Zrotation Xrotation Yrotation
  JOINT spine
  {
    OFFSET 0 7.96568 0.458067
    CHANNELS 3 Zrotation Xrotation Yrotation
    JOINT spine1
    {
      OFFSET 0 10.2431 0
      CHANNELS 3 Zrotation Xrotation Yrotation
      JOINT spine2
      {
        OFFSET 0 9.81475 0
        CHANNELS 3 Zrotation Xrotation Yrotation
        JOINT Neck
        {
          OFFSET 0 25.1986 1.20138
          CHANNELS 3 Zrotation Xrotation Yrotation
          JOINT Head
          {
            OFFSET 0 7.61315 0
            CHANNELS 3 Zrotation Xrotation Yrotation
            End Site
            {
              OFFSET 0 18.4281 -6.07733
            }
          }
        }
        JOINT RightShoulder
        {
          OFFSET -4.1327 10.5992 -0.575451
          CHANNELS 3 Zrotation Xrotation Yrotation
          JOINT RightArm
          {
            OFFSET 0 13.9018 0
            CHANNELS 3 Zrotation Xrotation Yrotation
            JOINT RightArmRoll
            {
              OFFSET 0 7.01788 0
              CHANNELS 3 Zrotation Xrotation Yrotation
              JOINT RightForeArm
              {
                OFFSET 0 20.4406 0
                CHANNELS 3 Zrotation Xrotation Yrotation
                JOINT RightForeArmRoll
                {
                  OFFSET 0 7.87515 0
                  CHANNELS 3 Zrotation Xrotation Yrotation
                  JOINT RightHand
                  {
                    OFFSET 0 15.8037 0
                    CHANNELS 3 Zrotation Xrotation Yrotation
                    End Site
                    {
                      OFFSET 0 0 0
                    }
                  }
                }
              }
            }
          }
        }
        JOINT LeftShoulder
        {
          OFFSET 4.1327 10.5992 -0.575451
          CHANNELS 3 Zrotation Xrotation Yrotation
          JOINT LeftArm
          {
            OFFSET 0 13.9018 0
            CHANNELS 3 Zrotation Xrotation Yrotation
            JOINT LeftArmRoll
            {
              OFFSET 0 7.01789 0
              CHANNELS 3 Zrotation Xrotation Yrotation
              JOINT LeftForeArm
              {
                OFFSET 0 20.4406 0
                CHANNELS 3 Zrotation Xrotation Yrotation
                JOINT LeftForeArmRoll
                {
                  OFFSET 0 7.87515 0
                  CHANNELS 3 Zrotation Xrotation Yrotation
                  JOINT LeftHand
                  {
                    OFFSET 0 15.8037 0
                    CHANNELS 3 Zrotation Xrotation Yrotation
                    End Site
                    {
                      OFFSET 0 0 0
                    }
                  }
                }
              }
            }
          }
        }
      }
    }
  }
  JOINT RightUpLeg
  {
    OFFSET -7.06048 -1.2947 -1.08609
    CHANNELS 3 Zrotation Xrotation Yrotation
    JOINT RightUpLegRoll
    {
      OFFSET 0 18.5308 0
      CHANNELS 3 Zrotation Xrotation Yrotation
      JOINT RightLeg
      {
        OFFSET 0 -22.9476 0
        CHANNELS 3 Zrotation Xrotation Yrotation
        JOINT RightLegRoll
        {
          OFFSET 0 23.0226 0
          CHANNELS 3 Zrotation Xrotation Yrotation
          JOINT RightFoot
          {
            OFFSET 0 19.1625 0
            CHANNELS 3 Zrotation Xrotation Yrotation
            JOINT RightToeBase
            {
              OFFSET 0 16.0188 0
              CHANNELS 3 Zrotation Xrotation Yrotation
              End Site
              {
                OFFSET 0.00678979 7.75782 -0.894206
              }
            }
          }
        }
      }
    }
  }
  JOINT LeftUpLeg
  {
    OFFSET 7.06048 -1.2947 -1.08609
    CHANNELS 3 Zrotation Xrotation Yrotation
    JOINT LeftUpLegRoll
    {
      OFFSET 0 18.5309 0
      CHANNELS 3 Zrotation Xrotation Yrotation
      JOINT LeftLeg
      {
        OFFSET 0 22.9475 0
        CHANNELS 3 Zrotation Xrotation Yrotation
        JOINT LeftLegRoll
        {
          OFFSET 0 23.2355 0
          CHANNELS 3 Zrotation Xrotation Yrotation
          JOINT LeftFoot
          {
            OFFSET 0 18.9496 0
            CHANNELS 3 Zrotation Xrotation Yrotation
            JOINT LeftToeBase
            {
              OFFSET 0 16.0188 0
              CHANNELS 3 Zrotation Xrotation Yrotation
              End Site
              {
                OFFSET -0.0304289 7.75782 -0.894206
              }
            }
          }
        }
      }
    }
  }
}
MOTION
Frames: 8
Frame Time: 0.00208333
64.1006 97.0056 23.4149 -0.219492 -2.79711 1.11157 -0.0508429 -1.14716 -0.308377 -0.124623 1.70885 -0.597176 -0.117562 3.35389 -0.595466 0.469178 15.1949 5.67388 0.211293 8.37308 5.90774 68.6315 -5.56157 -3.98717 103.057 12.1095 24.7739 -3.0045e-006 -2.3427e-007 1.05836e-005 -4.81042 11.5257 -0.325867 -7.46504e-006 3.12546e-006 -3.00448 8.03011 -4.95137 0.697615 -66.1714 -1.43202 1.65574 -106.232 16.9952 -2.90035 6.52901e-007 1.73721e-006 -7.41131e-007 -9.11098 0.867318 0.685657 3.96173e-006 2.9549e-006 3 -8.02903 -4.95147 -0.69768 175.97 -2.13217 3.3868 180 7.01525e-015 178.83 178.387 4.15129 179.718 -1.49267e-006 -2.57806e-006 0.0501 -19.0883 68.2754 19.782 8.13649 25.2327 -3.48774 -174.422 -0.0199599 -2.04852 4.54188e-006 -4.6773e-006 -1.11617 -2.38486 -9.56815 0.0249119 -8.99474e-007 -5.4305e-006 -0.213756 21.3576 70.813 -22.2099 -8.13649 25.2327 3.48773 
64.0956 97.0071 23.4182 -0.228661 -2.8096 1.09161 -0.0516824 -1.1388 -0.307442 -0.12592 1.72556 -0.596162 -0.118874 3.3706 -0.594432 0.463898 15.111 5.66524 0.232414 8.43023 5.89811 68.6044 -5.59107 -4.00082 103.098 12.1413 24.8274 -3.0045e-006 -2.3427e-007 1.05836e-005 -4.87445 11.5542 -0.315049 -7.46504e-006 3.12546e-006 -3.00448 8.03011 -4.95137 0.697615 -66.1401 -1.4156 1.64381 -106.277 17.0052 -2.80934 6.52901e-007 1.73721e-006 -7.41131e-007 -9.16391 0.962069 0.692396 3.96173e-006 2.9549e-006 3 -8.02903 -4.95147 -0.69768 175.98 -2.14523 3.3841 180 7.01525e-015 178.83 178.384 4.14057 179.717 -1.49267e-006 -2.57806e-006 0.0501662 -19.0819 68.268 19.7751 8.13649 25.2327 -3.48774 -174.41 -0.040387 -2.0602 4.54188e-006 -4.6773e-006 -1.1159 -2.38902 -9.56125 0.0244154 -8.99474e-007 -5.4305e-006 -0.213736 21.3569 70.8124 -22.2092 -8.13649 25.2327 3.48773 
64.0945 97.013 23.4105 -0.237701 -2.8234 1.07143 -0.0525396 -1.13005 -0.306339 -0.12727 1.74306 -0.594843 -0.120241 3.38811 -0.593091 0.458208 15.0228 5.65676 0.255646 8.49119 5.88858 68.5768 -5.62155 -4.01495 103.142 12.1714 24.8794 -3.0045e-006 -2.3427e-007 1.05836e-005 -4.93713 11.5883 -0.303965 -7.46504e-006 3.12546e-006 -3.00448 8.03011 -4.95137 0.697615 -66.1081 -1.39872 1.63157 -106.324 17.0156 -2.7177 6.52901e-007 1.73721e-006 -7.41131e-007 -9.21687 1.05597 0.698982 3.96173e-006 2.9549e-006 3 -8.02903 -4.95147 -0.69768 175.989 -2.15998 3.38182 180 7.01525e-015 178.83 178.38 4.12963 179.717 -1.49267e-006 -2.57806e-006 0.0502646 -19.0755 68.2607 19.7682 8.13649 25.2327 -3.48774 -174.398 -0.0630193 -2.072 4.54188e-006 -4.6773e-006 -1.11564 -2.39324 -9.55342 0.023901 -8.99474e-007 -5.4305e-006 -0.213707 21.3559 70.8116 -22.2082 -8.13649 25.2327 3.48773 
64.0993 97.0107 23.3871 -0.246655 -2.83812 1.05109 -0.0534094 -1.12102 -0.305117 -0.128656 1.76113 -0.59331 -0.121647 3.40617 -0.591536 0.452221 14.9316 5.6484 0.280363 8.55483 5.87912 68.5489 -5.65271 -4.02941 103.187 12.2003 24.9304 -3.0045e-006 -2.3427e-007 1.05836e-005 -4.99885 11.6264 -0.292694 -7.46504e-006 3.12546e-006 -3.00448 8.03011 -4.95137 0.697615 -66.0755 -1.38153 1.6191 -106.372 17.0261 -2.62561 6.52901e-007 1.73721e-006 -7.41131e-007 -9.26985 1.14928 0.705459 3.96173e-006 2.9549e-006 3 -8.02903 -4.95147 -0.69768 175.999 -2.17591 3.37982 180 7.01525e-015 178.83 178.377 4.11851 179.717 -1.49267e-006 -2.57806e-006 0.0503857 -19.0691 68.2533 19.7612 8.13649 25.2327 -3.48774 -174.385 -0.0871949 -2.08389 4.54188e-006 -4.6773e-006 -1.1154 -2.39751 -9.54494 0.0233743 -8.99474e-007 -5.4305e-006 -0.21367 21.3549 70.8107 -22.2071 -8.13649 25.2327 3.48773 
64.0862 97.0124 23.3922 -0.255564 -2.85337 1.03067 -0.0542866 -1.11183 -0.303829 -0.130064 1.77951 -0.591655 -0.123076 3.42455 -0.589858 0.446053 14.8386 5.64011 0.305939 8.62001 5.86971 68.5209 -5.68427 -4.04408 103.233 12.2284 24.9807 -3.0045e-006 -2.3427e-007 1.05836e-005 -5.06003 11.6667 -0.281314 -7.46504e-006 3.12546e-006 -3.00448 8.03011 -4.95137 0.697615 -66.0425 -1.36415 1.6065 -106.42 17.0367 -2.53327 6.52901e-007 1.73721e-006 -7.41131e-007 -9.32285 1.24225 0.711877 3.96173e-006 2.9549e-006 3 -8.02903 -4.95147 -0.69768 176.008 -2.19251 3.37799 180 7.01525e-015 178.83 178.373 4.10733 179.717 -1.49267e-006 -2.57806e-006 0.0505196 -19.0627 68.2459 19.7543 8.13649 25.2327 -3.48774 -174.373 -0.112252 -2.09582 4.54188e-006 -4.6773e-006 -1.11516 -2.40181 -9.53607 0.0228404 -8.99474e-007 -5.4305e-006 -0.21363 21.3538 70.8097 -22.2059 -8.13649 25.2327 3.48773 
64.0875 97.0114 23.3648 -0.26447 -2.86874 1.01023 -0.0551659 -1.1026 -0.302523 -0.131478 1.79797 -0.589969 -0.124512 3.44301 -0.58815 0.439818 14.7451 5.63186 0.331746 8.68556 5.86032 68.4928 -5.71593 -4.05879 103.279 12.2564 25.0309 -3.0045e-006 -2.3427e-007 1.05836e-005 -5.1211 11.7076 -0.269904 -7.46504e-006 3.12546e-006 -3.00448 8.03011 -4.95137 0.697615 -66.0095 -1.34672 1.59387 -106.469 17.0474 -2.44085 6.52901e-007 1.73721e-006 -7.41131e-007 -9.37587 1.33514 0.718281 3.96173e-006 2.9549e-006 3 -8.02903 -4.95147 -0.69768 176.018 -2.20928 3.3762 180 7.01525e-015 178.83 178.37 4.0961 179.717 -1.49267e-006 -2.57806e-006 0.0506568 -19.0563 68.2385 19.7473 8.13649 25.2327 -3.48774 -174.361 -0.13753 -2.10776 4.54188e-006 -4.6773e-006 -1.11493 -2.40612 -9.52712 0.0223048 -8.99474e-007 -5.4305e-006 -0.213589 21.3526 70.8086 -22.2047 -8.13649 25.2327 3.48773 
64.0789 97.0078 23.3785 -0.273415 -2.88386 0.989827 -0.0560421 -1.09345 -0.301251 -0.132882 1.81627 -0.588344 -0.125938 3.46131 -0.586503 0.433633 14.6526 5.62361 0.357155 8.75035 5.8509 68.4647 -5.74739 -4.07341 103.324 12.2847 25.0814 -3.0045e-006 -2.3427e-007 1.05836e-005 -5.18245 11.7473 -0.258545 -7.46504e-006 3.12546e-006 -3.00448 8.03011 -4.95137 0.697615 -65.9767 -1.32939 1.58131 -106.517 17.0579 -2.34854 6.52901e-007 1.73721e-006 -7.41131e-007 -9.42892 1.42819 0.724719 3.96173e-006 2.9549e-006 3 -8.02903 -4.95147 -0.69768 176.027 -2.22571 3.37433 180 7.01525e-015 178.83 178.366 4.08493 179.717 -1.49267e-006 -2.57806e-006 0.0507876 -19.0499 68.2311 19.7404 8.13649 25.2327 -3.48774 -174.349 -0.162366 -2.11969 4.54188e-006 -4.6773e-006 -1.11469 -2.41041 -9.51835 0.0217727 -8.99474e-007 -5.4305e-006 -0.21355 21.3515 70.8077 -22.2035 -8.13649 25.2327 3.48773 
64.0798 97.0087 23.3595 -0.282438 -2.89832 0.969535 -0.05691 -1.0845 -0.300064 -0.134262 1.83417 -0.586872 -0.127338 3.47922 -0.585009 0.427613 14.5622 5.6153 0.381539 8.81324 5.84144 68.4369 -5.77835 -4.08779 103.369 12.3138 25.1327 -3.0045e-006 -2.3427e-007 1.05836e-005 -5.24451 11.7843 -0.247314 -7.46504e-006 3.12546e-006 -3.00448 8.03011 -4.95137 0.697615 -65.9442 -1.31228 1.5689 -106.565 17.0682 -2.25654 6.52901e-007 1.73721e-006 -7.41131e-007 -9.48198 1.52167 0.731237 3.96173e-006 2.9549e-006 3 -8.02903 -4.95147 -0.69768 176.037 -2.2413 3.37225 180 7.01525e-015 178.83 178.363 4.07386 179.717 -1.49267e-006 -2.57806e-006 0.0509022 -19.0435 68.2237 19.7335 8.13649 25.2327 -3.48774 -174.336 -0.186099 -2.13155 4.54188e-006 -4.6773e-006 -1.11444 -2.41467 -9.51005 0.0212496 -8.99474e-007 -5.4305e-006 -0.213516 21.3505 70.8067 -22.2024 -8.13649 25.2327 3.48773 
